<svg xmlns="http://www.w3.org/2000/svg" version="1.1" xmlns:xlink="http://www.w3.org/1999/xlink" xmlns:svgjs="http://svgjs.dev/svgjs" viewBox="0 0 4.147856961771073 4.893079321756891"><g transform="matrix(1,0,0,1,0.3751674945574117,3.4979118271994794)"><rect width="4.893079321756891" height="4.893079321756891" x="-0.7477786745503205" y="-3.4979118271994794" fill="#67a97b"></rect><g><path d=" M 0.045 1.005 L 0.045 0.9809999999999999 L 0.1395 0.9314999999999999 L 0.525 0.00749999999999984 L 0.6075 0.00749999999999984 L 0.9885 0.9269999999999999 L 1.089 0.9809999999999999 L 1.089 1.005 L 0.6930000000000001 1.005 L 0.6930000000000001 0.9809999999999999 L 0.8250000000000001 0.9284999999999999 L 0.714 0.6584999999999999 L 0.3525 0.6584999999999999 L 0.243 0.9299999999999999 L 0.369 0.9809999999999999 L 0.369 1.005 L 0.045 1.005 M 0.387 0.5759999999999998 L 0.681 0.5759999999999998 L 0.534 0.2144999999999999 L 0.387 0.5759999999999998 M 1.21797216796875 1.005 L 1.21797216796875 0.9809999999999999 L 1.33797216796875 0.9209999999999999 L 1.36947216796875 0.09899999999999987 L 1.24047216796875 0.038999999999999924 L 1.24047216796875 0.014999999999999902 L 1.53897216796875 0.014999999999999902 L 1.87497216796875 0.7904999999999999 L 2.20947216796875 0.014999999999999902 L 2.49597216796875 0.014999999999999902 L 2.49597216796875 0.038999999999999924 L 2.3684721679687497 0.09449999999999992 L 2.39397216796875 0.9209999999999999 L 2.5019721679687503 0.9809999999999999 L 2.5019721679687503 1.005 L 2.13147216796875 1.005 L 2.13147216796875 0.9809999999999999 L 2.2439721679687503 0.9224999999999999 L 2.2289721679687498 0.18899999999999983 L 1.87497216796875 1.0125 L 1.80297216796875 1.0125 L 1.45197216796875 0.19799999999999984 L 1.43247216796875 0.9224999999999999 L 1.55697216796875 0.9809999999999999 L 1.55697216796875 1.005 L 1.21797216796875 1.005 M 2.98499853515625 1.0199999999999998 Q 2.89049853515625 1.0199999999999998 2.82374853515625 1.002 Q 2.75699853515625 0.9839999999999999 2.68649853515625 0.9494999999999999 L 2.67149853515625 0.702 L 2.69549853515625 0.702 L 2.77499853515625 0.8654999999999999 Q 2.82749853515625 0.9089999999999999 2.87849853515625 0.9284999999999999 Q 2.92949853515625 0.9479999999999998 2.98049853515625 0.9479999999999998 Q 3.06749853515625 0.9479999999999998 3.11774853515625 0.9029999999999999 Q 3.16799853515625 0.8579999999999999 3.16799853515625 0.7799999999999999 Q 3.16799853515625 0.7184999999999999 3.14024853515625 0.6817499999999999 Q 3.11249853515625 0.6449999999999999 3.05774853515625 0.6157499999999999 Q 3.00299853515625 0.5864999999999999 2.92349853515625 0.5474999999999999 Q 2.81699853515625 0.49649999999999983 2.75999853515625 0.4402499999999999 Q 2.70299853515625 0.3839999999999999 2.70299853515625 0.2819999999999999 Q 2.70299853515625 0.22799999999999987 2.72924853515625 0.17774999999999985 Q 2.75549853515625 0.12749999999999984 2.80049853515625 0.08774999999999988 Q 2.84549853515625 0.04799999999999982 2.90099853515625 0.02399999999999991 Q 2.95649853515625 -2.220446049250313e-16 3.01649853515625 -2.220446049250313e-16 Q 3.08699853515625 -2.220446049250313e-16 3.14849853515625 0.016499999999999848 Q 3.20999853515625 0.03299999999999992 3.26999853515625 0.06449999999999989 L 3.28499853515625 0.3044999999999999 L 3.26099853515625 0.3044999999999999 L 3.18299853515625 0.1439999999999999 Q 3.13499853515625 0.10649999999999993 3.09599853515625 0.08999999999999986 Q 3.05699853515625 0.0734999999999999 3.00749853515625 0.0734999999999999 Q 2.94299853515625 0.0734999999999999 2.90024853515625 0.11699999999999988 Q 2.85749853515625 0.16049999999999986 2.85749853515625 0.22649999999999992 Q 2.85749853515625 0.29999999999999993 2.90324853515625 0.34199999999999986 Q 2.94899853515625 0.3839999999999999 3.05099853515625 0.43199999999999983 Q 3.14099853515625 0.4754999999999999 3.20024853515625 0.5152499999999999 Q 3.2594985351562498 0.5549999999999999 3.28799853515625 0.6044999999999998 Q 3.31649853515625 0.6539999999999999 3.31649853515625 0.7304999999999999 Q 3.31649853515625 0.8009999999999999 3.28649853515625 0.8549999999999999 Q 3.25649853515625 0.9089999999999999 3.20699853515625 0.9457499999999999 Q 3.15749853515625 0.9824999999999999 3.09974853515625 1.00125 Q 3.04199853515625 1.0199999999999998 2.98499853515625 1.0199999999999998" fill="#ffffff" fill-rule="nonzero"></path></g><g></g><g clip-path="url(#SvgjsClipPath1003)"><g clip-path="url(#SvgjsClipPath10015e867172-245e-4807-8b61-87a3154f39a6)"><path d=" M 0.22851277846603205 -1.7280143210389747 C 0.2305437335966563 -1.7581505271137254 0.23132443501177094 -1.7883829065512078 0.23423792217687261 -1.8184625400596455 C 0.2411850333200665 -1.890185239630828 0.25257874817543496 -1.9625924672543937 0.2697711510778505 -2.0326349616060906 C 0.3065659482076005 -2.182512661538204 0.3707927827423564 -2.3284585681115884 0.453603705310819 -2.458467982754698 C 0.473834055024224 -2.490233478739253 0.49686474677010534 -2.5201943098584345 0.5197370353303112 -2.5500702821281473 C 0.6502103450171848 -2.7205290816848042 0.8151306903318333 -2.8615305459624625 1.0070983796005613 -2.9586543278080266 C 1.1657900853641865 -3.0389364566623134 1.3396715251827593 -3.088426137672623 1.5157196942911069 -3.110489438534558 C 1.6761708068670556 -3.1306009858587065 1.8426921558083516 -3.128626603294395 1.999143587945996 -3.0843585701547434 C 2.0043878648431788 -3.0828707116607204 2.009524653864368 -3.0810547322820843 2.014327664744312 -3.0784354224618085 C 2.017393897838458 -3.076760874498954 2.020414872879554 -3.0746846613152794 2.022983267390148 -3.0722972990168853 C 2.0300152373828113 -3.065763167607774 2.0301057534889115 -3.0560213716887348 2.024572956503534 -3.048197385767695 C 2.015962611910748 -3.0360342840104746 1.9997036563524913 -3.0271806773825443 1.9882816552139664 -3.0177274015516997 C 1.9622752464800395 -2.9962128545829976 1.9355333943840478 -2.9755412388523537 1.9087010261819561 -2.955061969847173 C 1.8949369207980875 -2.944556444282913 1.878875969221925 -2.9356971803983516 1.8686533064892286 -2.9213220912983062 C 1.8495487508454458 -2.8944784085829522 1.8580516075622373 -2.858215393576541 1.8876673460269118 -2.843319836866419 C 1.894987836107769 -2.8396426200560967 1.9022970116753637 -2.8378209834208294 1.9104943765340674 -2.8376738947484164 C 1.9186012252866707 -2.837532463332635 1.9266515014729613 -2.8383301365176434 1.9344868019072636 -2.840479894037524 C 1.9669028824044146 -2.8493617869486108 1.9833598419447656 -2.880572871783302 2.005140279975137 -2.903196241051732 C 2.0274242138456917 -2.926351392443501 2.053990690986114 -2.9455012061403347 2.0812077526391315 -2.962399431697924 C 2.126024539672016 -2.9902274770671187 2.173223031746663 -3.0120248868673842 2.223657474614394 -3.0275993143732576 C 2.433207917493095 -3.0923183302349337 2.6674918863636883 -3.0505677762961954 2.8473247601583527 -2.926668198814852 C 2.8982287553264783 -2.891593207701007 2.941438881476083 -2.8487621177456965 2.9832120644413465 -2.8035380082353614 C 3.0582046583454003 -2.7223450610634403 3.1089276213013264 -2.619778998338599 3.1372931060504907 -2.5136036058830102 C 3.1459656804662206 -2.4811366100761783 3.1539367550596733 -2.448177432942426 3.1575291130205265 -2.414697788198598 C 3.1636446074389246 -2.35766132684218 3.1628129907141282 -2.301892090971166 3.15816838301986 -2.2447764280219107 C 3.152816618246683 -2.1789429326038756 3.1357317032202614 -2.1119383850631683 3.1143585876673407 -2.04957844521673 C 3.1119429390857904 -2.0425238461975423 3.109001165637533 -2.035011009391222 3.1044810175891513 -2.0290086601054496 C 3.0971944710480814 -2.019329094009354 3.088131545924794 -2.011505108088314 3.0861967641569015 -1.9988950830572236 C 3.0824912610634225 -1.9748121415779267 3.0923405448584553 -1.9483474950568673 3.1161858815592396 -1.9387980458632916 C 3.124111698099642 -1.9356243248931515 3.13326513932903 -1.9359467885211339 3.1416095928601457 -1.9367784052459298 C 3.1442119309105276 -1.9325750635688996 3.1433576851592075 -1.922459888712197 3.1440761567513773 -1.9173683577440581 C 3.1460448820590585 -1.9033666475816766 3.1493543771883488 -1.8895629414013888 3.151600308070961 -1.875600832035426 C 3.1601823663805897 -1.8221284423567055 3.1679214934521616 -1.7683222745367406 3.1694546099992342 -1.7141200987525869 C 3.171281903891132 -1.6495877723597427 3.1676669169037543 -1.5859492925146386 3.1618116562903946 -1.5216885144400951 C 3.151764368513267 -1.4113324093340012 3.131109724552517 -1.3009084171483323 3.0937039437065907 -1.1962661412398166 C 3.0881937757477385 -1.180867088689512 3.0811448339851815 -1.1661186206518035 3.0751141984162524 -1.1509288865968559 C 3.06763530514972 -1.1320902220147424 3.0615424397578472 -1.1125500576103518 3.0531583854303124 -1.0940734574526387 C 3.0454588591551595 -1.0771073448154738 3.0367127404032237 -1.0605655264256537 3.028334343332319 -1.0439218774164711 C 3.020629159800536 -1.0286189982288985 3.013348270516097 -1.0104139463894861 3.001643406546009 -0.9976851189691391 C 2.89063671692732 -0.9983413607383662 2.779596083768843 -0.9977303770221897 2.668583736893522 -0.9977134052522953 C 2.5950394006870727 -0.997702090739033 2.5214950644806224 -0.9976907762257707 2.447950728274172 -0.9977134052522953 C 2.4039768724793467 -0.9977303770221897 2.359997359427889 -0.9980415261369089 2.316029160889695 -0.9976681471992457 C 2.285451688797705 -0.9974079133942073 2.2541783741400705 -0.9977699778186082 2.2271536592125156 -0.9815393085435078 C 2.1732343462599255 -0.9491458570728826 2.1634246632613117 -0.8635176207020492 2.2145775777212133 -0.823814993663829 C 2.2225203660315094 -0.8176485839357497 2.231294771066602 -0.8131963229669439 2.2408272484902847 -0.8100508882799606 C 2.265068593155256 -0.8020402128900885 2.292659033745938 -0.8053327362494849 2.317828168498437 -0.8053440507627476 C 2.3624639233191216 -0.8053723370459038 2.407094020883174 -0.8054006233290605 2.4517241184472267 -0.8054345668688478 C 2.60258618103318 -0.8055477120014736 2.7534482436191343 -0.8055703410279982 2.9043103062050877 -0.8054741676652668 C 2.923793898043166 -0.805462853152004 2.9432831471378753 -0.8054006233290605 2.9627723962325847 -0.8055194257183169 C 2.979082267100523 -0.8056155990810483 2.9955561984107675 -0.8062831553635377 3.011339944411998 -0.8014744872269617 C 3.061123802767133 -0.7862960676852766 3.0925442060971813 -0.7296273280098919 3.073417021426873 -0.6799735865572756 C 3.070124498067477 -0.671436786300696 3.065604350019096 -0.6634713689638745 3.0598056619720486 -0.6563884836615301 C 3.044994964111396 -0.6382909196981124 3.0244760943097964 -0.6253075157293586 3.0015924912363277 -0.6202555855576382 C 2.9876643254101527 -0.6171836952068612 2.973130833124432 -0.6184622352055276 2.9589820342896367 -0.6185414367983646 C 2.937614575993347 -0.6186545819309899 2.9162414604404274 -0.6185923521080463 2.894874002144138 -0.6186093238779398 C 2.723900392234035 -0.6187111544973027 2.552926782323933 -0.6185980093646779 2.38195317241383 -0.6186941827274093 C 2.3580682349166278 -0.6187111544973027 2.3341776401627943 -0.6187564125503529 2.310292702665592 -0.6186885254707777 C 2.2912616913580157 -0.6186376101610964 2.2708276804058842 -0.6198935211332373 2.2521078182130276 -0.6158146391020947 C 2.2247380106309658 -0.6098518906127413 2.202199500212004 -0.5893613070942978 2.1906077813745415 -0.5644524061468363 C 2.1863195808480427 -0.5552367350945051 2.1835701541252472 -0.5450989312112777 2.182348186692894 -0.5350176998943628 C 2.180741525809615 -0.521785376633833 2.181120562003909 -0.5088585452313916 2.1845149159826684 -0.49590908480242524 C 2.1869645081040066 -0.4865463250776805 2.191512942435544 -0.47825844411287743 2.1966440742001017 -0.4701289663337489 C 2.2099612563101 -0.44899345555934156 2.2320188999154045 -0.43297210477959824 2.256429962279314 -0.4272526183253884 C 2.2696622855398436 -0.42415244169145483 2.2841901205689332 -0.42587224770735954 2.2976430768380824 -0.4260759089460855 C 2.3188238456655403 -0.426404029830699 2.3400159290062605 -0.42625694115828594 2.3612023550903496 -0.4262625984149171 C 2.5365773106595757 -0.4263361427511234 2.7119522662288027 -0.42632482823786066 2.887332879054661 -0.4263078564679672 C 2.915692706547194 -0.42630219921133605 2.9439903042167836 -0.4265737475296367 2.9722879018863733 -0.42492748584993834 C 2.987913244701928 -0.4240166675323045 3.0039459099949344 -0.42336042576307786 3.0189828981208375 -0.4185743866530278 C 3.042551029246689 -0.41107286435996926 3.061157746306921 -0.39325250597148376 3.0720196790389505 -0.3713702373217491 C 3.076149476379774 -0.36304841281715783 3.078638669297531 -0.35376485468525143 3.0797192053141025 -0.34454918363291975 C 3.0811957492948627 -0.33190521506204185 3.0793910844294894 -0.3193178190574759 3.0749218516907897 -0.30740929384866256 C 3.0719461347027446 -0.2994721627949972 3.0679068534680205 -0.2918857816524705 3.0628492660396693 -0.2850801019250584 C 3.034319720848198 -0.2466560148855037 2.9882300510732787 -0.2507858122263271 2.945676166692901 -0.2509385581553718 C 2.833198590350083 -0.25133456611956007 2.720715356750633 -0.2509329008987402 2.6082377804078147 -0.25095552992526526 C 2.117940319945938 -0.2510347315181032 1.6276485167406922 -0.25087067107579664 1.1373510562788156 -0.25095552992526526 C 1.004315009337979 -0.2509781589517903 0.8712167325741982 -0.2520926385081501 0.7381806856333615 -0.25087632833242735 C 0.7207619924656953 -0.25071792514675195 0.700825820097116 -0.24824004674225808 0.6837861631237447 -0.25239813036623815 C 0.6493221557260761 -0.2607991564636669 0.618857828766712 -0.2957100871352054 0.6157689666460411 -0.3310905701071394 C 0.6125443303662199 -0.36809468573224624 0.6384319367108902 -0.40861195772536885 0.675198447557484 -0.4184386124938766 C 0.6871239445361914 -0.42162364797727925 0.6996491107178129 -0.4207976885091145 0.7118687850413462 -0.42082597479227113 C 0.7311883164371175 -0.42086557558868964 0.7505078478328888 -0.42074677319943365 0.76982737922866 -0.42070717240301425 C 0.8319893150930039 -0.4205657409872323 0.8941569082139792 -0.4206675716065953 0.9563188440783232 -0.42067888611985804 C 0.9826816599800199 -0.4206845433764892 1.0091463065010795 -0.41994910001442465 1.0354978078895134 -0.4205713982438639 C 1.0467104905326816 -0.420837289305533 1.0596033783953354 -0.4235018571788598 1.0638972361784658 -0.4355178702636673 C 1.0704200530743146 -0.4537681801561293 1.0666296911313669 -0.47824147234298353 1.0666240338747355 -0.4973460279867665 C 1.0666014048482106 -0.5393624729871744 1.066544832281898 -0.5813789179875823 1.066505231485479 -0.6233953629879907 C 1.066358142813066 -0.765460391512327 1.0664939169722167 -0.9075141055234006 1.0663807718395915 -1.0495791340477365 C 1.0663524855564348 -1.0904697849785228 1.0648476552925183 -1.131298206086365 1.064689252106843 -1.1721549134773637 C 1.064649651310424 -1.1833506243506378 1.0647062238767366 -1.1945463352239118 1.0646157077706364 -1.2057477033538175 C 1.064570449717586 -1.211025923790788 1.0636822604264777 -1.217639256792737 1.0656566429907892 -1.2226572434246694 C 1.0716250487367742 -1.2378300057097233 1.0907692051769762 -1.2507455225989021 1.102553270739902 -1.2613472215258934 C 1.1299570218617516 -1.2860015459249479 1.1560482894451476 -1.312138071561394 1.1834067825139467 -1.3368659402966552 C 1.222888776543548 -1.3725519151266772 1.2604020452654687 -1.4103593611934235 1.2989562492075424 -1.4470410131905482 C 1.351585707648204 -1.4971133916338781 1.404854436088199 -1.5464616412284062 1.4573028623166604 -1.5967150518839364 C 1.516771944024522 -1.6536949406740413 1.5764446869711093 -1.710193962650489 1.6363946354926284 -1.76666469834378 C 1.6522745548565902 -1.7816224848768454 1.667141825283556 -1.7980398436207776 1.6838816476554703 -1.8120358965265282 C 1.692299645522793 -1.8190791810324536 1.700994848965048 -1.826360070316892 1.7122697614311597 -1.827830957041021 C 1.735707775654492 -1.830897190135167 1.7548293030681694 -1.8114927998899266 1.7708676256178064 -1.7971007390199876 C 1.8107795711513839 -1.7612733327741839 1.8498655572167966 -1.724144757503189 1.8882160999201445 -1.6866541178077934 C 2.003131953871038 -1.574334944650651 2.1214930771103724 -1.465517613348261 2.2372744913258495 -1.3540753149689644 C 2.267518185276595 -1.3249687296011041 2.298593495952135 -1.296705075471302 2.3288541616727736 -1.2675984901034418 C 2.340887146527475 -1.2560294002925039 2.353553744124878 -1.2450995804808995 2.3647381404848904 -1.2326705876620094 C 2.369450635258734 -1.227437625278089 2.374892916138011 -1.221429618735685 2.3772802784364053 -1.214697483344479 C 2.379876959230156 -1.2073713360069904 2.3785984192314906 -1.1981556649546594 2.3785927619748586 -1.1905013967325573 C 2.378575790204965 -1.1743273000237693 2.3783834434795024 -1.1581532033149817 2.378406072506027 -1.1419791066061942 C 2.3784173870192893 -1.1277567634351928 2.3753737829516686 -1.108974671419392 2.3886004489555672 -1.0994535085089723 C 2.3970750193892023 -1.093349328603837 2.4079539238911263 -1.0940678001960076 2.4178597802524724 -1.0940451711694825 C 2.4348032638631114 -1.0940055703730636 2.4517467474737513 -1.093881110727176 2.4686902310843912 -1.0938697962139132 C 2.5100051762625224 -1.0938471671873882 2.551331435953916 -1.0941074009924265 2.592646381132048 -1.0938358526741259 C 2.6133915411988973 -1.0937057357716062 2.637174648076737 -1.0895363376343639 2.6574049977901426 -1.0952049087788915 C 2.687032050768079 -1.1035097615135894 2.7072680577381156 -1.1362256766121972 2.698516281729548 -1.166514628615992 C 2.689849364570449 -1.1965094032749612 2.658027296019581 -1.2172545633418113 2.6362072571927913 -1.2375131993383726 C 2.588986136091618 -1.2813682527439418 2.5426418897682925 -1.3261567534936698 2.495477341233433 -1.3700740367221826 C 2.3936523791272872 -1.464895315118822 2.292987154630551 -1.5610064480273893 2.190681325710748 -1.6552959443006896 C 2.1099692453524845 -1.7296775544885667 2.0285273788887883 -1.8033067495444854 1.9493936731306483 -1.8793855367217425 C 1.896611468760942 -1.9301254714475617 1.8431560508521159 -1.9803279667934108 1.7893838265719382 -2.030043938068971 C 1.7671960660641155 -2.05056280787057 1.7420665321080344 -2.07801181704547 1.7087000324968316 -2.073910305987803 C 1.6898613679147176 -2.071596488025615 1.67699676633522 -2.0585734832604423 1.6641547937822476 -2.0458220268135703 C 1.6537510988373507 -2.035486218948248 1.6432059724766719 -2.0253088142686018 1.6326382170894682 -2.015142724102218 C 1.5782097510400641 -1.9627848139798567 1.5227460070271381 -1.91156401244038 1.467910218500283 -1.8596247393087324 C 1.2998557530119135 -1.7004521667314496 1.130901783719173 -1.5423148721176887 0.9616988951346567 -1.3843755814860217 C 0.9132388348312374 -1.3391514719756863 0.8646203713421426 -1.2940687938811324 0.8163243714810302 -1.2486636521585965 C 0.7927901838949661 -1.2265324642170863 0.7610812604767238 -1.2053290663631036 0.7456199781034755 -1.1763639124110248 C 0.7410093139489942 -1.1677252815350827 0.7376149599702349 -1.1574573607493361 0.737914794571692 -1.147579790671147 C 0.7386106371373375 -1.1247414456507283 0.7570193502154752 -1.100749020277532 0.7783641794852394 -1.0930664657722735 C 0.7954038364586108 -1.086933999583982 0.815209891924671 -1.0874997252471088 0.8329623632335815 -1.0894797650680514 C 0.8532549427699305 -1.0917483249771887 0.8793688393798516 -1.1000362059419926 0.8900214536165243 -1.0763549296835158 C 0.8943322831695485 -1.0667828514634143 0.8912151347657212 -1.0505465249316828 0.8912377637922463 -1.0401541445000482 C 0.8912999936151903 -1.0118678613437218 0.8912660500754027 -0.9835815781873944 0.8912547355621401 -0.9552952950310676 C 0.8912151347657212 -0.8559764976125726 0.8912490783055088 -0.756657700194078 0.8912547355621401 -0.6573445600322141 C 0.8912603928187713 -0.6271744104176755 0.8912773645886652 -0.5970042608031374 0.8911925057391962 -0.5668341111885993 C 0.8911529049427773 -0.5539129370427891 0.893149916533614 -0.5379142152895704 0.882746221588717 -0.5281611048572685 C 0.8764949530111686 -0.5223058442439097 0.8679807817811143 -0.5244838880469467 0.860151138603443 -0.5246705775157787 C 0.8425740422501016 -0.5250778999932297 0.8249460305870787 -0.524557432383153 0.8073576197204745 -0.5245913759229404 C 0.797304674686716 -0.5246083476928343 0.7872347578830635 -0.5248402952147164 0.7771761555926737 -0.5246818920290406 C 0.7715075844481458 -0.5245913759229404 0.764713219233996 -0.5234599245966876 0.7592596238414563 -0.5252702467186929 C 0.7511810613720092 -0.5279574436185435 0.7438718858044144 -0.536471614848598 0.7376206172268661 -0.542015726347238 C 0.7253273985671265 -0.552911602619055 0.7125815993768856 -0.5632700395109018 0.70039586859314 -0.5742903754286068 C 0.6793735029513579 -0.5932874431963957 0.6582210204070567 -0.6121374222917719 0.6385281100736218 -0.6325431469607468 C 0.6101173672714071 -0.6619835104698519 0.5841279303073739 -0.6941506716752266 0.558274267502491 -0.72581999429705 C 0.4917732158019665 -0.8072844897872713 0.4369091409919549 -0.8962901083669697 0.3899256246692958 -0.9903080563219695 C 0.32264952881028797 -1.1249337923761913 0.27170593284574324 -1.2669988209005278 0.24675743110186288 -1.4158186138425946 C 0.22954239917292235 -1.518531765239849 0.22547483165504253 -1.6240565731828422 0.22851277846603205 -1.7280143210389747 Z M 0.6371024814025429 -2.2524589825271693 C 0.636531098482785 -2.2501677935915065 0.6359540583063961 -2.2478766046558443 0.6353826753866382 -2.2455854157201816 C 0.6600256852724302 -2.283477720636397 0.6819588692318461 -2.3229710291792607 0.7100867492024976 -2.358589116929708 C 0.7428931804072055 -2.400136009629721 0.784151553019024 -2.437321157467028 0.8260039375771252 -2.4695279194688218 C 0.8932630616662393 -2.521286160388269 0.9679784499953612 -2.5526895919484227 1.04983329619314 -2.5733216068826477 C 1.172516563498761 -2.6042441716291442 1.3020394540715818 -2.6030165469401596 1.4220638107605084 -2.5602250577812686 C 1.4734656445121856 -2.541906860809231 1.5240980913620106 -2.5166754962337876 1.5688469913153198 -2.485413496089415 C 1.612747302773939 -2.4547511651479565 1.651035615654343 -2.4172096101428795 1.6920337544611235 -2.3830114938068805 C 1.6998747121520574 -2.4355617506547045 1.708733976036619 -2.489317003164988 1.7225150531903812 -2.5406962078901403 C 1.7297223981386132 -2.567568176888651 1.7389493837042074 -2.593518013056265 1.7479500790045508 -2.619795970108493 C 1.715907377445063 -2.598654802077454 1.6794972737662395 -2.572224099096182 1.6389517154899604 -2.5738647035192495 C 1.6252724689555607 -2.5744247719257443 1.612509697995426 -2.583538612358713 1.6010876968569012 -2.590440465448857 C 1.5799578433391248 -2.6032032364089916 1.5590373083167055 -2.616707107987822 1.5369683501981395 -2.6278123027549958 C 1.474772470794008 -2.659113903695787 1.4045263152035856 -2.6826537485384825 1.335298465806791 -2.691965592953545 C 1.2713658086168609 -2.7005646230330687 1.2070654297458987 -2.702918041791675 1.1430422564498683 -2.6938042013587067 C 0.9766340526411973 -2.670111610586967 0.8192774594425506 -2.576648073781832 0.7219387018449985 -2.43952183029659 C 0.6957682326687649 -2.4026534888306337 0.6753285644600031 -2.3629565190490447 0.6595278466888789 -2.3206628684737045 C 0.6512060221842875 -2.2984015636296755 0.6463747250211869 -2.2740018157790276 0.6371024814025429 -2.2524589825271693 Z M 0.8533680879025559 -1.6145919828387352 C 0.8578542924111493 -1.6080125933765734 0.8652256978016881 -1.6027287156829715 0.8712393616007232 -1.59758061214852 C 0.8825199313234663 -1.587918017822319 0.8938005010462096 -1.5781818791599111 0.9056241674055543 -1.569181183859568 C 0.9102008880202478 -1.5656963137747082 0.9196371920811985 -1.5557508566169438 0.9254019365884579 -1.5554453647588558 C 0.9295656774690693 -1.5604972949305755 0.9352625348967535 -1.564321600413311 0.9399750296705974 -1.5688700347448483 C 0.9518948693926738 -1.5803712374762107 0.9639278542473753 -1.5917479805616856 0.975904266535764 -1.6031982679833667 C 0.9921575648373895 -1.6187444092060839 1.0085749235813215 -1.6341095182166008 1.0249866250686224 -1.6494802844837486 C 1.0328106109896624 -1.6568064318212372 1.0402272744332512 -1.6652866595115043 1.0487357884066746 -1.6717811901241968 C 1.1447337761826168 -1.766268690379591 1.2445334404147692 -1.8576277277178956 1.3425963268611234 -1.9501804462053975 C 1.3755724757647694 -1.981295357677357 1.4073662580324808 -2.013847212333658 1.439793653042894 -2.045550478495269 C 1.4601428051455556 -2.065435735554167 1.4798074291958339 -2.0859150045593475 1.503256757932429 -2.101789266666678 C 1.506843458636651 -2.103339354983645 1.509632486155865 -2.1072258902893246 1.51229139677256 -2.110014917808538 C 1.5185087218103204 -2.116526420191125 1.5243979259634677 -2.1233490716884305 1.5306039364879658 -2.1298718885842796 C 1.5500875283260438 -2.150345500332829 1.5703857651190238 -2.170038410666264 1.5899202722667831 -2.190472421618394 C 1.5963073150034819 -2.197153641699919 1.6025981843774493 -2.203936692400806 1.6090814004768792 -2.2105330536328616 C 1.6117572828634676 -2.2132541940725003 1.6169167009111818 -2.2165184311487405 1.6181669546266915 -2.2201277608794876 C 1.612894391446352 -2.2331507656446603 1.6036051760578143 -2.2452007222692556 1.5953003233231169 -2.256413404912424 C 1.5757884452018824 -2.2827592490442266 1.5537308015965787 -2.3052921022065567 1.52937065454235 -2.32721397165271 C 1.495857066258734 -2.3573671494973545 1.4590056965626712 -2.3842504330091274 1.4178434973135843 -2.4031004121045036 C 1.2934630530185836 -2.460063329124715 1.146148090340433 -2.463180477528542 1.0193180539240945 -2.412276482360416 C 0.9900474081139274 -2.400532017593909 0.9625983989390279 -2.3845276385840597 0.9362468975505938 -2.3673635219648004 C 0.8718899461133187 -2.3254489075837554 0.8161376820121985 -2.272112292064185 0.7767914621417477 -2.205582954080504 C 0.7272338940518629 -2.121776354344939 0.7057985486759983 -2.0211111298482027 0.7114897488470514 -1.9244455857897713 C 0.7167057394610781 -1.8357907171212116 0.7439963454503022 -1.7480523240269168 0.7974404488458663 -1.676431455075097 C 0.8094847482138303 -1.660291301906097 0.8225643255453159 -1.645265628293456 0.8366339227872728 -1.6308679101668857 C 0.8416801957023615 -1.6257084921191716 0.8470432749888012 -1.6181390827465385 0.8533680879025559 -1.6145919828387352 Z M 1.5163363352639145 -1.0868661125044068 C 1.5152501419907116 -1.0513159118335351 1.5136208520809071 -1.00220526701752 1.5538892047822541 -0.9870947345554106 C 1.5601121870766461 -0.984763944823329 1.566482258043451 -0.9833552879221443 1.5731012483020312 -0.9827952195156486 C 1.5910743526195616 -0.9812790747384694 1.6095848963170618 -0.9826255018167109 1.6275862869177482 -0.9831516266834188 C 1.6364116072625223 -0.9834118604884567 1.646894503800257 -0.9846960577437538 1.65392647379292 -0.9783033577504239 C 1.6615581129884969 -0.9713675611204926 1.6601155125475244 -0.9616936522810291 1.6602343149367809 -0.952359178839441 C 1.6605115205117127 -0.931195381781877 1.6610772461748393 -0.9098562097687442 1.6603531173260373 -0.8887037272244429 C 1.6598948795389048 -0.8752677427251876 1.6586955411330764 -0.8604061295548537 1.6455254476954908 -0.8529498653148457 C 1.638533078499247 -0.8489954429295916 1.6260588276273067 -0.8524237404481383 1.6183593013521547 -0.8528140911556954 C 1.5998544149112854 -0.8537475384998543 1.5775817955539935 -0.8558690097365789 1.5598915540680267 -0.8493009347876797 C 1.542908469660968 -0.8429930936438188 1.5265024254302983 -0.8278316458720272 1.5208564833122957 -0.8102941503151051 C 1.515176597654505 -0.7926378523689253 1.5159007265033069 -0.7719096640719689 1.5167889157944157 -0.7535914670999322 C 1.5177336776518373 -0.7340003873858598 1.5195270280039481 -0.7152578961664777 1.5302135857804084 -0.6982352109630003 C 1.5460765333744766 -0.6729529310778748 1.5741761270619719 -0.6664187996687638 1.602089031280635 -0.6669788680752586 C 1.6185912488740362 -0.6673069889598722 1.6350595229276499 -0.6690041659492523 1.651561740521051 -0.6694001739134405 C 1.6925825083543562 -0.670373222054018 1.7337107640636555 -0.6695585770991159 1.7747428464102233 -0.6694850327629096 C 1.7909565439154298 -0.6694567464797534 1.8072041849604243 -0.6695698916123787 1.823400910695737 -0.6688061619671579 C 1.8353829802407569 -0.6682460935606622 1.848937767129269 -0.6663169690494009 1.8607218326921946 -0.6688910208166265 C 1.886615096293496 -0.6745539347045231 1.911207190869607 -0.698568989104245 1.9149522947595046 -0.7252429541206613 C 1.9164684395366838 -0.7360483142863781 1.9165985564392027 -0.7471817953367084 1.9166324999789905 -0.7580776716085253 C 1.9166777580320404 -0.7722773857530014 1.9188048865253962 -0.7879140430818192 1.915981915466395 -0.8018874669610443 C 1.911597541577164 -0.8236113324251035 1.8917858288544729 -0.8478357053201817 1.8690776007365737 -0.8518863010681677 C 1.8495940088984955 -0.8553541993831337 1.828158663522631 -0.8533685023055595 1.8084374669060401 -0.8531535265535712 C 1.7978979978019927 -0.853040381420946 1.7877488794055025 -0.8510094262903221 1.7795967725998492 -0.8591728476092375 C 1.7706413353525559 -0.8681509138830559 1.772468629244455 -0.8797709190036751 1.7726100606602362 -0.8913682950977688 C 1.7728985807484308 -0.9157680429484167 1.7721235365899475 -0.9403997383209459 1.7731927580932567 -0.964765542631806 C 1.7737584837563833 -0.9776640877510911 1.7843149246303243 -0.9812507884553132 1.795493663733705 -0.9817373125256021 C 1.8187449884882056 -0.9827556187192297 1.8427883291710834 -0.9778281481933977 1.8656945612710771 -0.9837908966827515 C 1.8879615233717373 -0.9895895847297984 1.907863752200529 -1.0083207614359182 1.9140527909551335 -1.0308253283150917 C 1.9184032213045765 -1.046626046086216 1.9167117015718278 -1.0663528999594383 1.9165928991825716 -1.0826175127743265 C 1.9164514677667899 -1.102542370629643 1.9172038828987483 -1.122563401847691 1.9053010149465657 -1.1395181999715938 C 1.8769185584275074 -1.1799392986019845 1.8238761202527631 -1.1733372801132982 1.7804057602981198 -1.173229792237304 C 1.7357756627340672 -1.1731166471046786 1.691145565170015 -1.1730883608215223 1.6465154676059623 -1.173207163210779 C 1.6234055742672433 -1.173269393033723 1.5972011615512218 -1.176618488959432 1.5746117358225793 -1.1709612323281666 C 1.557741796548146 -1.1667352616246114 1.5428179535548678 -1.1556809821671188 1.5321540248049326 -1.142211054128076 C 1.527775308172333 -1.1366839143993295 1.5228930956995512 -1.1305005329013567 1.520590592250626 -1.1237570829968884 C 1.5167266859714719 -1.112436912477726 1.5167040569449468 -1.098746351430064 1.5163363352639145 -1.0868661125044068 Z M 1.8501371055350972 -2.3408819036738473 C 1.8497354403142772 -2.299838506814017 1.8533051692486058 -2.26015285154569 1.8611687559660646 -2.219805297251505 C 1.8642180172903167 -2.2041403536395316 1.865507871802245 -2.1862125073750516 1.8726529869275335 -2.171741244912275 C 1.8824739844394103 -2.151855987853377 1.9045825433543953 -2.1372772375146063 1.9192518097992661 -2.120967366646668 C 1.967406378244597 -2.067438404401635 2.023141670575824 -2.020477517105501 2.0753015767160905 -1.9709369207855099 C 2.1422665234603784 -1.9073380417368246 2.209717994274956 -1.8442766020681096 2.2771920941160584 -1.7812208196560255 C 2.296483339228673 -1.763196800028814 2.3152032014215305 -1.744584425711951 2.3346019344101387 -1.726656579447471 C 2.340932404580525 -1.7208069760907425 2.349395660500898 -1.7088362210589851 2.357587368102971 -1.7060528507964026 C 2.3626619273012155 -1.7043217302672353 2.369778756143347 -1.7052212340716064 2.375073948350212 -1.7052438630981315 C 2.386524235771893 -1.7052834638945507 2.397968865936943 -1.7053852945139132 2.409419153358624 -1.7052438630981315 C 2.4660935502906405 -1.704548020532486 2.5218627861616545 -1.7127566999044521 2.5762799376977963 -1.7281783814812817 C 2.7249922427638698 -1.7703192861275772 2.8574625640415796 -1.8723083086760295 2.934463484049733 -2.0069227302169894 C 2.958139103051579 -2.0483055624746953 2.975009042326012 -2.093427841365668 2.987873643905509 -2.139195047512605 C 3.003397156101701 -2.1944042149771237 3.0130258068881153 -2.2497774428839494 3.0139366252057496 -2.307221226717818 C 3.0152321369743085 -2.3886008633585707 2.997038399648159 -2.470042729822267 2.9671171693253973 -2.5453691018675655 C 2.95497103933807 -2.575952231216186 2.9389044305052767 -2.603774619328749 2.921559281673817 -2.6316648945208874 C 2.901430762579774 -2.664035716964988 2.880815719415443 -2.696101047551 2.854758395371835 -2.724104467875764 C 2.7538159653001673 -2.8326049928068024 2.6088317923540973 -2.8978557907918177 2.4616865473748852 -2.9078069052062134 C 2.3962603744343003 -2.912230879891863 2.328101746540815 -2.902511712999349 2.265317512447032 -2.8842104877972052 C 2.1920220955323577 -2.862843029500916 2.120423855607063 -2.8244189424613615 2.0610566045185648 -2.776524607821069 C 2.037669505604913 -2.7576576569557987 2.0172298373961515 -2.7357753883060645 1.996801483700652 -2.7138648333731736 C 1.9552093329475888 -2.669251707579015 1.9194215274982043 -2.617261519137686 1.895711964956571 -2.560966158399964 C 1.866232000651047 -2.4909745793579487 1.8508838634104243 -2.4167344005858533 1.8501371055350972 -2.3408819036738473 Z" fill="#2a4053" transform="matrix(1,0,0,1,0,0)" fill-rule="evenodd"></path></g><g clip-path="url(#SvgjsClipPath10015e867172-245e-4807-8b61-87a3154f39a6)"><path d=" M 0.6371024814025429 -2.2524589825271693 C 0.6463747250211869 -2.2740018157790276 0.6512060221842875 -2.2984015636296755 0.6595278466888789 -2.3206628684737045 C 0.6753285644600031 -2.3629565190490447 0.6957682326687649 -2.4026534888306337 0.7219387018449985 -2.43952183029659 C 0.8192774594425506 -2.576648073781832 0.9766340526411973 -2.670111610586967 1.1430422564498683 -2.6938042013587067 C 1.2070654297458987 -2.702918041791675 1.2713658086168609 -2.7005646230330687 1.335298465806791 -2.691965592953545 C 1.4045263152035856 -2.6826537485384825 1.474772470794008 -2.659113903695787 1.5369683501981395 -2.6278123027549958 C 1.5590373083167055 -2.616707107987822 1.5799578433391248 -2.6032032364089916 1.6010876968569012 -2.590440465448857 C 1.612509697995426 -2.583538612358713 1.6252724689555607 -2.5744247719257443 1.6389517154899604 -2.5738647035192495 C 1.6794972737662395 -2.572224099096182 1.715907377445063 -2.598654802077454 1.7479500790045508 -2.619795970108493 C 1.7389493837042074 -2.593518013056265 1.7297223981386132 -2.567568176888651 1.7225150531903812 -2.5406962078901403 C 1.708733976036619 -2.489317003164988 1.6998747121520574 -2.4355617506547045 1.6920337544611235 -2.3830114938068805 C 1.651035615654343 -2.4172096101428795 1.612747302773939 -2.4547511651479565 1.5688469913153198 -2.485413496089415 C 1.5240980913620106 -2.5166754962337876 1.4734656445121856 -2.541906860809231 1.4220638107605084 -2.5602250577812686 C 1.3020394540715818 -2.6030165469401596 1.172516563498761 -2.6042441716291442 1.04983329619314 -2.5733216068826477 C 0.9679784499953612 -2.5526895919484227 0.8932630616662393 -2.521286160388269 0.8260039375771252 -2.4695279194688218 C 0.784151553019024 -2.437321157467028 0.7428931804072055 -2.400136009629721 0.7100867492024976 -2.358589116929708 C 0.6819588692318461 -2.3229710291792607 0.6600256852724302 -2.283477720636397 0.6353826753866382 -2.2455854157201816 C 0.6359540583063961 -2.2478766046558443 0.636531098482785 -2.2501677935915065 0.6371024814025429 -2.2524589825271693 Z" fill="#fcfdfe" transform="matrix(1,0,0,1,0,0)" fill-rule="evenodd"></path></g><g clip-path="url(#SvgjsClipPath10015e867172-245e-4807-8b61-87a3154f39a6)"><path d=" M 1.503256757932429 -2.101789266666678 C 1.5010108270498166 -2.1071410314398555 1.4966151386473234 -2.1122155906381 1.4933565588277147 -2.1170808313409886 C 1.4872750079491044 -2.126149413720907 1.4816290658311013 -2.135591375038489 1.4745065797323385 -2.143901885029818 C 1.470704903276128 -2.14833717422873 1.4668749405367614 -2.154396096080815 1.461687236205891 -2.1572360389097103 C 1.4603181801011247 -2.1653598594322077 1.4501068318816908 -2.17314990181346 1.4445570631264193 -2.1787675576483063 C 1.4275966077458857 -2.195948646037459 1.4087918867035596 -2.2114325574372327 1.3888557143349805 -2.2250269451221634 C 1.3626513016189592 -2.2428869043070683 1.3348006272232396 -2.258704593848086 1.304472074423026 -2.2684294179972313 C 1.229456851492447 -2.2924953877066345 1.1404399183994864 -2.284286708334668 1.069316888031218 -2.25143501907691 C 1.0142717810090058 -2.2260113077760035 0.9640013985835816 -2.1856241526854 0.9313759995910742 -2.1339790568985784 C 0.8770776504441891 -2.0480340141563946 0.8717654864674309 -1.938447295952153 0.9038817323631244 -1.8439145376437085 C 0.9130238590792493 -1.816997310592148 0.9284115971162912 -1.7918790911493296 0.9458472620538511 -1.7695555564823564 C 0.9543444615140116 -1.7586823092370643 0.966224700439669 -1.7482050699559608 0.9731604970696003 -1.736421004393035 C 0.9731208962731814 -1.7358496214732775 0.9730812954767625 -1.7352838958101509 0.9730360374237125 -1.7347125128903929 C 0.9601770931008462 -1.7228492457346294 0.9486419468296962 -1.7088645073421413 0.9363770144531127 -1.696299740364101 C 0.9201972604876938 -1.6797183211778624 0.9030840591781161 -1.6642853250877703 0.886095317514426 -1.6485581516528525 C 0.8777848075230972 -1.6408586253777002 0.8691518339037863 -1.6336569376860997 0.8613731060357963 -1.6253860284911896 C 0.858165441525869 -1.621969045485905 0.8544825674589152 -1.6192648768161602 0.8533680879025559 -1.6145919828387352 C 0.8470432749888012 -1.6181390827465385 0.8416801957023615 -1.6257084921191716 0.8366339227872728 -1.6308679101668857 C 0.8225643255453159 -1.645265628293456 0.8094847482138303 -1.660291301906097 0.7974404488458663 -1.676431455075097 C 0.7439963454503022 -1.7480523240269168 0.7167057394610781 -1.8357907171212116 0.7114897488470514 -1.9244455857897713 C 0.7057985486759983 -2.0211111298482027 0.7272338940518629 -2.121776354344939 0.7767914621417477 -2.205582954080504 C 0.8161376820121985 -2.272112292064185 0.8718899461133187 -2.3254489075837554 0.9362468975505938 -2.3673635219648004 C 0.9625983989390279 -2.3845276385840597 0.9900474081139274 -2.400532017593909 1.0193180539240945 -2.412276482360416 C 1.146148090340433 -2.463180477528542 1.2934630530185836 -2.460063329124715 1.4178434973135843 -2.4031004121045036 C 1.4590056965626712 -2.3842504330091274 1.495857066258734 -2.3573671494973545 1.52937065454235 -2.32721397165271 C 1.5537308015965787 -2.3052921022065567 1.5757884452018824 -2.2827592490442266 1.5953003233231169 -2.256413404912424 C 1.6036051760578143 -2.2452007222692556 1.612894391446352 -2.2331507656446603 1.6181669546266915 -2.2201277608794876 C 1.6169167009111818 -2.2165184311487405 1.6117572828634676 -2.2132541940725003 1.6090814004768792 -2.2105330536328616 C 1.6025981843774493 -2.203936692400806 1.5963073150034819 -2.197153641699919 1.5899202722667831 -2.190472421618394 C 1.5703857651190238 -2.170038410666264 1.5500875283260438 -2.150345500332829 1.5306039364879658 -2.1298718885842796 C 1.5243979259634677 -2.1233490716884305 1.5185087218103204 -2.116526420191125 1.51229139677256 -2.110014917808538 C 1.509632486155865 -2.1072258902893246 1.506843458636651 -2.103339354983645 1.503256757932429 -2.101789266666678 Z" fill="#fefffe" transform="matrix(1,0,0,1,0,0)" fill-rule="evenodd"></path></g><g clip-path="url(#SvgjsClipPath10015e867172-245e-4807-8b61-87a3154f39a6)"><path d=" M 0.9730360374237125 -1.7347125128903929 C 0.9809052813978026 -1.7296945262584604 0.9874394128069142 -1.7221647176822463 0.9943299513837954 -1.7159077918480667 C 1.0053785735846565 -1.7058718185842021 1.016744002156869 -1.6961356799217944 1.0286694991355763 -1.6871462991347137 C 1.0334159374492078 -1.6835652556871228 1.0382132910725208 -1.6799728977262691 1.0430389309789903 -1.6765106566679346 C 1.0448096523045765 -1.6752377739258997 1.0486283005306807 -1.6742251249889035 1.0487357884066746 -1.6717811901241968 C 1.0402272744332512 -1.6652866595115043 1.0328106109896624 -1.6568064318212372 1.0249866250686224 -1.6494802844837486 C 1.0085749235813215 -1.6341095182166008 0.9921575648373895 -1.6187444092060839 0.975904266535764 -1.6031982679833667 C 0.9639278542473753 -1.5917479805616856 0.9518948693926738 -1.5803712374762107 0.9399750296705974 -1.5688700347448483 C 0.9352625348967535 -1.564321600413311 0.9295656774690693 -1.5604972949305755 0.9254019365884579 -1.5554453647588558 C 0.9196371920811985 -1.5557508566169438 0.9102008880202478 -1.5656963137747082 0.9056241674055543 -1.569181183859568 C 0.8938005010462096 -1.5781818791599111 0.8825199313234663 -1.587918017822319 0.8712393616007232 -1.59758061214852 C 0.8652256978016881 -1.6027287156829715 0.8578542924111493 -1.6080125933765734 0.8533680879025559 -1.6145919828387352 C 0.8544825674589152 -1.6192648768161602 0.858165441525869 -1.621969045485905 0.8613731060357963 -1.6253860284911896 C 0.8691518339037863 -1.6336569376860997 0.8777848075230972 -1.6408586253777002 0.886095317514426 -1.6485581516528525 C 0.9030840591781161 -1.6642853250877703 0.9201972604876938 -1.6797183211778624 0.9363770144531127 -1.696299740364101 C 0.9486419468296962 -1.7088645073421413 0.9601770931008462 -1.7228492457346294 0.9730360374237125 -1.7347125128903929 Z" fill="#dee8ec" transform="matrix(1,0,0,1,0,0)" fill-rule="evenodd"></path></g><g clip-path="url(#SvgjsClipPath10015e867172-245e-4807-8b61-87a3154f39a6)"><path d=" M 1.461687236205891 -2.1572360389097103 C 1.4532013512589927 -2.1465381666199876 1.440116116670876 -2.1382219993720275 1.4301650022564802 -2.128791352567708 C 1.4024557592765425 -2.1025190527721116 1.3738922705452836 -2.0771575712941486 1.3457078180083195 -2.0514000818519973 C 1.3350382320017529 -2.041652628676327 1.3246628233400122 -2.031758086828244 1.312890072290349 -2.0233344317042903 C 1.3076740816763222 -2.0196006423276547 1.3017056759303374 -2.0147014580849794 1.295307318680376 -2.0134512043694697 C 1.2952960041671138 -2.0153294135710498 1.2953978347864765 -2.0158385666678633 1.293943919832241 -2.0171057921532665 C 1.2933612223992208 -2.0236682098455345 1.290187501429081 -2.0306662362984103 1.2875342480690175 -2.0366572710709203 C 1.2715298690591677 -2.072733596608499 1.229179645917515 -2.0940614541083695 1.1902860065775656 -2.0901183462363777 C 1.144054905386865 -2.0854341377456898 1.1022647506517076 -2.0396499598288593 1.1069433018857642 -1.9924627822674748 C 1.108329329760424 -1.9784950156448808 1.1126118730302919 -1.965183490791513 1.120073794526931 -1.9532693083260684 C 1.127173651599169 -1.9419265087803814 1.1362648630056125 -1.9313870396763337 1.1473757150294177 -1.9238119730470695 C 1.1525068467939754 -1.920310131192316 1.1584356517435417 -1.918409292964211 1.1635724407647303 -1.915082826065027 C 1.1643248558966888 -1.913866515889305 1.165184758904641 -1.9131480442971345 1.1660729481957497 -1.9120618510239311 C 1.1591654378489746 -1.9094029404072366 1.1543058544027178 -1.9032648169623136 1.1491747226381601 -1.8981563142242812 C 1.1410452448590318 -1.8900720944982028 1.1325763316820274 -1.8824234835327318 1.1240451886820793 -1.874774872567261 C 1.08895322579834 -1.8433148684407945 1.0544609321175151 -1.8110685056425817 1.0201213843657342 -1.7787938565612127 C 1.0097403184473621 -1.76903508887228 0.9996590871304474 -1.7589368857854712 0.9891592188228188 -1.7493138922556888 C 0.9841695184740428 -1.7447428288976266 0.9794683382134612 -1.739187402885724 0.9731604970696003 -1.736421004393035 C 0.966224700439669 -1.7482050699559608 0.9543444615140116 -1.7586823092370643 0.9458472620538511 -1.7695555564823564 C 0.9284115971162912 -1.7918790911493296 0.9130238590792493 -1.816997310592148 0.9038817323631244 -1.8439145376437085 C 0.8717654864674309 -1.938447295952153 0.8770776504441891 -2.0480340141563946 0.9313759995910742 -2.1339790568985784 C 0.9640013985835816 -2.1856241526854 1.0142717810090058 -2.2260113077760035 1.069316888031218 -2.25143501907691 C 1.1404399183994864 -2.284286708334668 1.229456851492447 -2.2924953877066345 1.304472074423026 -2.2684294179972313 C 1.3348006272232396 -2.258704593848086 1.3626513016189592 -2.2428869043070683 1.3888557143349805 -2.2250269451221634 C 1.4087918867035596 -2.2114325574372327 1.4275966077458857 -2.195948646037459 1.4445570631264193 -2.1787675576483063 C 1.4501068318816908 -2.17314990181346 1.4603181801011247 -2.1653598594322077 1.461687236205891 -2.1572360389097103 Z" fill="#1cb3a9" transform="matrix(1,0,0,1,0,0)" fill-rule="evenodd"></path></g><g clip-path="url(#SvgjsClipPath10015e867172-245e-4807-8b61-87a3154f39a6)"><path d=" M 0.9731604970696003 -1.736421004393035 C 0.9794683382134612 -1.739187402885724 0.9841695184740428 -1.7447428288976266 0.9891592188228188 -1.7493138922556888 C 0.9996590871304474 -1.7589368857854712 1.0097403184473621 -1.76903508887228 1.0201213843657342 -1.7787938565612127 C 1.0544609321175151 -1.8110685056425817 1.08895322579834 -1.8433148684407945 1.1240451886820793 -1.874774872567261 C 1.1325763316820274 -1.8824234835327318 1.1410452448590318 -1.8900720944982028 1.1491747226381601 -1.8981563142242812 C 1.1543058544027178 -1.9032648169623136 1.1591654378489746 -1.9094029404072366 1.1660729481957497 -1.9120618510239311 C 1.1741741396917216 -1.9093633396108178 1.1817944643740361 -1.9064215661625599 1.1904330952499786 -1.905787953419858 C 1.2354082854685382 -1.9024784582905678 1.275393775338322 -1.9275514196803358 1.291550900277216 -1.9700657032642952 C 1.29483210912335 -1.978693019626975 1.2957033266445648 -1.9876201705911118 1.2955449234588894 -1.996790583590393 C 1.2954600646094203 -2.001955658894738 1.2935818554078402 -2.0085916209232124 1.295307318680376 -2.0134512043694697 C 1.3017056759303374 -2.0147014580849794 1.3076740816763222 -2.0196006423276547 1.312890072290349 -2.0233344317042903 C 1.3246628233400122 -2.031758086828244 1.3350382320017529 -2.041652628676327 1.3457078180083195 -2.0514000818519973 C 1.3738922705452836 -2.0771575712941486 1.4024557592765425 -2.1025190527721116 1.4301650022564802 -2.128791352567708 C 1.440116116670876 -2.1382219993720275 1.4532013512589927 -2.1465381666199876 1.461687236205891 -2.1572360389097103 C 1.4668749405367614 -2.154396096080815 1.470704903276128 -2.14833717422873 1.4745065797323385 -2.143901885029818 C 1.4816290658311013 -2.135591375038489 1.4872750079491044 -2.126149413720907 1.4933565588277147 -2.1170808313409886 C 1.4966151386473234 -2.1122155906381 1.5010108270498166 -2.1071410314398555 1.503256757932429 -2.101789266666678 C 1.4798074291958339 -2.0859150045593475 1.4601428051455556 -2.065435735554167 1.439793653042894 -2.045550478495269 C 1.4073662580324808 -2.013847212333658 1.3755724757647694 -1.981295357677357 1.3425963268611234 -1.9501804462053975 C 1.2445334404147692 -1.8576277277178956 1.1447337761826168 -1.766268690379591 1.0487357884066746 -1.6717811901241968 C 1.0486283005306807 -1.6742251249889035 1.0448096523045765 -1.6752377739258997 1.0430389309789903 -1.6765106566679346 C 1.0382132910725208 -1.6799728977262691 1.0334159374492078 -1.6835652556871228 1.0286694991355763 -1.6871462991347137 C 1.016744002156869 -1.6961356799217944 1.0053785735846565 -1.7058718185842021 0.9943299513837954 -1.7159077918480667 C 0.9874394128069142 -1.7221647176822463 0.9809052813978026 -1.7296945262584604 0.9730360374237125 -1.7347125128903929 C 0.9730812954767625 -1.7352838958101509 0.9731208962731814 -1.7358496214732775 0.9731604970696003 -1.736421004393035 Z" fill="#14948e" transform="matrix(1,0,0,1,0,0)" fill-rule="evenodd"></path></g><g clip-path="url(#SvgjsClipPath10015e867172-245e-4807-8b61-87a3154f39a6)"><path d=" M 1.293943919832241 -2.0171057921532665 C 1.2903572191280188 -2.0205227751585513 1.2810397174563248 -2.0102548543728043 1.2784260648926804 -2.0078278912779917 C 1.2648033909245933 -1.9951612936805885 1.2520462772210899 -1.9816065067920767 1.2383783451999526 -1.9689908245043548 C 1.2224192242431529 -1.95425932823654 1.2047120109872924 -1.939131824004536 1.185307620742052 -1.92918070959014 C 1.1798087672964621 -1.9263577385311388 1.1647774364271901 -1.9215830139343508 1.1635724407647303 -1.915082826065027 C 1.1584356517435417 -1.918409292964211 1.1525068467939754 -1.920310131192316 1.1473757150294177 -1.9238119730470695 C 1.1362648630056125 -1.9313870396763337 1.127173651599169 -1.9419265087803814 1.120073794526931 -1.9532693083260684 C 1.1126118730302919 -1.965183490791513 1.108329329760424 -1.9784950156448808 1.1069433018857642 -1.9924627822674748 C 1.1022647506517076 -2.0396499598288593 1.144054905386865 -2.0854341377456898 1.1902860065775656 -2.0901183462363777 C 1.229179645917515 -2.0940614541083695 1.2715298690591677 -2.072733596608499 1.2875342480690175 -2.0366572710709203 C 1.290187501429081 -2.0306662362984103 1.2933612223992208 -2.0236682098455345 1.293943919832241 -2.0171057921532665 Z" fill="#fffffe" transform="matrix(1,0,0,1,0,0)" fill-rule="evenodd"></path></g><g clip-path="url(#SvgjsClipPath10015e867172-245e-4807-8b61-87a3154f39a6)"><path d=" M 1.293943919832241 -2.0171057921532665 C 1.2953978347864765 -2.0158385666678633 1.2952960041671138 -2.0153294135710498 1.295307318680376 -2.0134512043694697 C 1.2935818554078402 -2.0085916209232124 1.2954600646094203 -2.001955658894738 1.2955449234588894 -1.996790583590393 C 1.2957033266445648 -1.9876201705911118 1.29483210912335 -1.978693019626975 1.291550900277216 -1.9700657032642952 C 1.275393775338322 -1.9275514196803358 1.2354082854685382 -1.9024784582905678 1.1904330952499786 -1.905787953419858 C 1.1817944643740361 -1.9064215661625599 1.1741741396917216 -1.9093633396108178 1.1660729481957497 -1.9120618510239311 C 1.165184758904641 -1.9131480442971345 1.1643248558966888 -1.913866515889305 1.1635724407647303 -1.915082826065027 C 1.1647774364271901 -1.9215830139343508 1.1798087672964621 -1.9263577385311388 1.185307620742052 -1.92918070959014 C 1.2047120109872924 -1.939131824004536 1.2224192242431529 -1.95425932823654 1.2383783451999526 -1.9689908245043548 C 1.2520462772210899 -1.9816065067920767 1.2648033909245933 -1.9951612936805885 1.2784260648926804 -2.0078278912779917 C 1.2810397174563248 -2.0102548543728043 1.2903572191280188 -2.0205227751585513 1.293943919832241 -2.0171057921532665 Z" fill="#ebecee" transform="matrix(1,0,0,1,0,0)" fill-rule="evenodd"></path></g><g clip-path="url(#SvgjsClipPath10015e867172-245e-4807-8b61-87a3154f39a6)"><path d=" M 1.5163363352639145 -1.0868661125044068 C 1.5167040569449468 -1.098746351430064 1.5167266859714719 -1.112436912477726 1.520590592250626 -1.1237570829968884 C 1.5228930956995512 -1.1305005329013567 1.527775308172333 -1.1366839143993295 1.5321540248049326 -1.142211054128076 C 1.5428179535548678 -1.1556809821671188 1.557741796548146 -1.1667352616246114 1.5746117358225793 -1.1709612323281666 C 1.5972011615512218 -1.176618488959432 1.6234055742672433 -1.173269393033723 1.6465154676059623 -1.173207163210779 C 1.691145565170015 -1.1730883608215223 1.7357756627340672 -1.1731166471046786 1.7804057602981198 -1.173229792237304 C 1.8238761202527631 -1.1733372801132982 1.8769185584275074 -1.1799392986019845 1.9053010149465657 -1.1395181999715938 C 1.9172038828987483 -1.122563401847691 1.9164514677667899 -1.102542370629643 1.9165928991825716 -1.0826175127743265 C 1.9167117015718278 -1.0663528999594383 1.9184032213045765 -1.046626046086216 1.9140527909551335 -1.0308253283150917 C 1.907863752200529 -1.0083207614359182 1.8879615233717373 -0.9895895847297984 1.8656945612710771 -0.9837908966827515 C 1.8427883291710834 -0.9778281481933977 1.8187449884882056 -0.9827556187192297 1.795493663733705 -0.9817373125256021 C 1.7843149246303243 -0.9812507884553132 1.7737584837563833 -0.9776640877510911 1.7731927580932567 -0.964765542631806 C 1.7721235365899475 -0.9403997383209459 1.7728985807484308 -0.9157680429484167 1.7726100606602362 -0.8913682950977688 C 1.772468629244455 -0.8797709190036751 1.7706413353525559 -0.8681509138830559 1.7795967725998492 -0.8591728476092375 C 1.7877488794055025 -0.8510094262903221 1.7978979978019927 -0.853040381420946 1.8084374669060401 -0.8531535265535712 C 1.828158663522631 -0.8533685023055595 1.8495940088984955 -0.8553541993831337 1.8690776007365737 -0.8518863010681677 C 1.8917858288544729 -0.8478357053201817 1.911597541577164 -0.8236113324251035 1.915981915466395 -0.8018874669610443 C 1.9188048865253962 -0.7879140430818192 1.9166777580320404 -0.7722773857530014 1.9166324999789905 -0.7580776716085253 C 1.9165985564392027 -0.7471817953367084 1.9164684395366838 -0.7360483142863781 1.9149522947595046 -0.7252429541206613 C 1.911207190869607 -0.698568989104245 1.886615096293496 -0.6745539347045231 1.8607218326921946 -0.6688910208166265 C 1.848937767129269 -0.6663169690494009 1.8353829802407569 -0.6682460935606622 1.823400910695737 -0.6688061619671579 C 1.8072041849604243 -0.6695698916123787 1.7909565439154298 -0.6694567464797534 1.7747428464102233 -0.6694850327629096 C 1.7337107640636555 -0.6695585770991159 1.6925825083543562 -0.670373222054018 1.651561740521051 -0.6694001739134405 C 1.6350595229276499 -0.6690041659492523 1.6185912488740362 -0.6673069889598722 1.602089031280635 -0.6669788680752586 C 1.5741761270619719 -0.6664187996687638 1.5460765333744766 -0.6729529310778748 1.5302135857804084 -0.6982352109630003 C 1.5195270280039481 -0.7152578961664777 1.5177336776518373 -0.7340003873858598 1.5167889157944157 -0.7535914670999322 C 1.5159007265033069 -0.7719096640719689 1.515176597654505 -0.7926378523689253 1.5208564833122957 -0.8102941503151051 C 1.5265024254302983 -0.8278316458720272 1.542908469660968 -0.8429930936438188 1.5598915540680267 -0.8493009347876797 C 1.5775817955539935 -0.8558690097365789 1.5998544149112854 -0.8537475384998543 1.6183593013521547 -0.8528140911556954 C 1.6260588276273067 -0.8524237404481383 1.638533078499247 -0.8489954429295916 1.6455254476954908 -0.8529498653148457 C 1.6586955411330764 -0.8604061295548537 1.6598948795389048 -0.8752677427251876 1.6603531173260373 -0.8887037272244429 C 1.6610772461748393 -0.9098562097687442 1.6605115205117127 -0.931195381781877 1.6602343149367809 -0.952359178839441 C 1.6601155125475244 -0.9616936522810291 1.6615581129884969 -0.9713675611204926 1.65392647379292 -0.9783033577504239 C 1.646894503800257 -0.9846960577437538 1.6364116072625223 -0.9834118604884567 1.6275862869177482 -0.9831516266834188 C 1.6095848963170618 -0.9826255018167109 1.5910743526195616 -0.9812790747384694 1.5731012483020312 -0.9827952195156486 C 1.566482258043451 -0.9833552879221443 1.5601121870766461 -0.984763944823329 1.5538892047822541 -0.9870947345554106 C 1.5136208520809071 -1.00220526701752 1.5152501419907116 -1.0513159118335351 1.5163363352639145 -1.0868661125044068 Z" fill="#ffffff" transform="matrix(1,0,0,1,0,0)" fill-rule="evenodd"></path></g><g clip-path="url(#SvgjsClipPath10015e867172-245e-4807-8b61-87a3154f39a6)"><path d=" M 1.8501371055350972 -2.3408819036738473 C 1.8508838634104243 -2.4167344005858533 1.866232000651047 -2.4909745793579487 1.895711964956571 -2.560966158399964 C 1.9194215274982043 -2.617261519137686 1.9552093329475888 -2.669251707579015 1.996801483700652 -2.7138648333731736 C 2.0172298373961515 -2.7357753883060645 2.037669505604913 -2.7576576569557987 2.0610566045185648 -2.776524607821069 C 2.120423855607063 -2.8244189424613615 2.1920220955323577 -2.862843029500916 2.265317512447032 -2.8842104877972052 C 2.328101746540815 -2.902511712999349 2.3962603744343003 -2.912230879891863 2.4616865473748852 -2.9078069052062134 C 2.6088317923540973 -2.8978557907918177 2.7538159653001673 -2.8326049928068024 2.854758395371835 -2.724104467875764 C 2.880815719415443 -2.696101047551 2.901430762579774 -2.664035716964988 2.921559281673817 -2.6316648945208874 C 2.9389044305052767 -2.603774619328749 2.95497103933807 -2.575952231216186 2.9671171693253973 -2.5453691018675655 C 2.997038399648159 -2.470042729822267 3.0152321369743085 -2.3886008633585707 3.0139366252057496 -2.307221226717818 C 3.0130258068881153 -2.2497774428839494 3.003397156101701 -2.1944042149771237 2.987873643905509 -2.139195047512605 C 2.975009042326012 -2.093427841365668 2.958139103051579 -2.0483055624746953 2.934463484049733 -2.0069227302169894 C 2.8574625640415796 -1.8723083086760295 2.7249922427638698 -1.7703192861275772 2.5762799376977963 -1.7281783814812817 C 2.5218627861616545 -1.7127566999044521 2.4660935502906405 -1.704548020532486 2.409419153358624 -1.7052438630981315 C 2.397968865936943 -1.7053852945139132 2.386524235771893 -1.7052834638945507 2.375073948350212 -1.7052438630981315 C 2.369778756143347 -1.7052212340716064 2.3626619273012155 -1.7043217302672353 2.357587368102971 -1.7060528507964026 C 2.349395660500898 -1.7088362210589851 2.340932404580525 -1.7208069760907425 2.3346019344101387 -1.726656579447471 C 2.3152032014215305 -1.744584425711951 2.296483339228673 -1.763196800028814 2.2771920941160584 -1.7812208196560255 C 2.209717994274956 -1.8442766020681096 2.1422665234603784 -1.9073380417368246 2.0753015767160905 -1.9709369207855099 C 2.023141670575824 -2.020477517105501 1.967406378244597 -2.067438404401635 1.9192518097992661 -2.120967366646668 C 1.9045825433543953 -2.1372772375146063 1.8824739844394103 -2.151855987853377 1.8726529869275335 -2.171741244912275 C 1.865507871802245 -2.1862125073750516 1.8642180172903167 -2.2041403536395316 1.8611687559660646 -2.219805297251505 C 1.8533051692486058 -2.26015285154569 1.8497354403142772 -2.299838506814017 1.8501371055350972 -2.3408819036738473 Z M 2.1704679477672366 -2.082679053766264 C 2.1664230092758823 -2.050557150613939 2.189827079959427 -2.0300213090424455 2.2111549374592974 -2.0095929553469465 C 2.2583364577640506 -1.9643858176065048 2.3178055394719124 -1.9254865210099241 2.384510252411162 -1.919178679866063 C 2.384730885419782 -1.8961423308635508 2.384397107278537 -1.8730946673477753 2.384470651614744 -1.8500583183452628 C 2.384510252411162 -1.838336482605281 2.3834014301114346 -1.8246289497877248 2.388758852141243 -1.8138405613919018 C 2.411404850436198 -1.7682204439173776 2.478946837356876 -1.7678640367496081 2.504534609100089 -1.810757356527862 C 2.5108141639607933 -1.8212855111186472 2.5097562569707463 -1.834523491635808 2.509942946439579 -1.8463245289686276 C 2.5103446116603987 -1.8714201193849207 2.5069049996285893 -1.8977207054636736 2.5103446116603987 -1.9226013201279788 C 2.539241878532902 -1.9288469314488956 2.568529496112962 -1.9353867201146384 2.595180832102854 -1.948675615941481 C 2.6219057124289513 -1.962004112564742 2.6463054602795992 -1.9826304702423356 2.6658682537105154 -2.0050728072985655 C 2.7220957273686617 -2.069565532894991 2.7369969413354145 -2.1707172814620157 2.704309312519964 -2.2497321848308993 C 2.690533892622832 -2.2830364546191584 2.6670053622933994 -2.313183975207172 2.639663840994494 -2.336503187041248 C 2.610076388812976 -2.3617402088733224 2.570068269916667 -2.3863605897325897 2.5306654774799036 -2.390886395037602 C 2.4986397476903104 -2.394563611847924 2.465092215866907 -2.3916105238864036 2.432879796608481 -2.391616181143035 C 2.4168867321118936 -2.391616181143035 2.400780522482682 -2.390524330613201 2.38517215143702 -2.3946937287504433 C 2.337470163522191 -2.4074451851973153 2.2985538951557167 -2.4531275324947837 2.3013259509050368 -2.5036355196987206 C 2.302304656302245 -2.521410620034157 2.308787872401675 -2.5382522730254338 2.3177772531887557 -2.553413720797225 C 2.3247696223850003 -2.565203443616782 2.3334987693670426 -2.5765236141359438 2.343613944223745 -2.585795857754588 C 2.3969222734601585 -2.634657583278827 2.4755128825816968 -2.6327058297410404 2.53476133128094 -2.5963183550887416 C 2.549707803300743 -2.587136627576198 2.563228646649467 -2.576184178738068 2.575731183804564 -2.563902274591591 C 2.5873285598986575 -2.5525142169928534 2.599248399620734 -2.5362609186912284 2.61500951659544 -2.5306489201130127 C 2.621611535084126 -2.528301158611038 2.6292431742797033 -2.528838597991008 2.636122398343322 -2.5292685494949843 C 2.6637128389340026 -2.530988355510889 2.6919878075770676 -2.5586975984908267 2.6943072827958865 -2.58656524465644 C 2.695557536511396 -2.6016305190654996 2.690177485455062 -2.6153267373697933 2.681453995729652 -2.6273427504546008 C 2.6514592210706818 -2.668663352889363 2.602829443068325 -2.697922684186268 2.556683200727093 -2.7175477074401275 C 2.541527410211933 -2.7239913227431387 2.524442495185512 -2.726876523625084 2.5097223134309594 -2.733868892821328 C 2.5094281360861332 -2.75113484005995 2.510717990598062 -2.7685591904842473 2.5109386236066813 -2.785847766749394 C 2.5110743977658316 -2.7960704294820906 2.5116401234289585 -2.8061064027459555 2.5068314552923825 -2.815491791497225 C 2.484321231156578 -2.859431703752263 2.4159759137942602 -2.865428395781404 2.3901279082460087 -2.8207700119341954 C 2.382445353740751 -2.8075037451338782 2.383169482589553 -2.7919858901943173 2.383627720376685 -2.777169535077033 C 2.384068986393924 -2.7629358773927697 2.38414253073013 -2.748702219708506 2.384442365331587 -2.734468562024242 C 2.3670519584470773 -2.7251454030959166 2.3457071291773133 -2.720828916286261 2.327400246718539 -2.7130728174447962 C 2.2975242744488256 -2.700423191617287 2.268943813947673 -2.68183910358358 2.24617335600683 -2.658666980421917 C 2.2258411756740624 -2.6379727356647487 2.208818490470585 -2.6133070967524317 2.197249400659647 -2.5866840470456967 C 2.1888823181020056 -2.567443717242763 2.182602763241301 -2.546930504697795 2.1800173969608125 -2.5260552277284254 C 2.167056622018584 -2.4213733510234907 2.228975295847783 -2.3230445735154674 2.3262348518524973 -2.284365909927506 C 2.367040643933815 -2.2681408979090367 2.4087402825628716 -2.270720606932894 2.4516845176508077 -2.27110530038382 C 2.475739172846948 -2.271320276135808 2.498956554061661 -2.2727345902936245 2.522094733683536 -2.2650237495052097 C 2.5737228577004645 -2.247808717576269 2.6151962060642715 -2.187728652152231 2.597488992808411 -2.132666573360125 C 2.5657913839034308 -2.034100191073588 2.4343902841290292 -2.0099946205677663 2.351030607667334 -2.0567518466251746 C 2.3354448656481974 -2.0654923081204797 2.3206171960176514 -2.0757658861628574 2.308018485499823 -2.08851734260973 C 2.2916067840125223 -2.105121390822494 2.2768583159748133 -2.125040591421179 2.254885531218979 -2.134737129287168 C 2.2274874373537603 -2.1468323439648134 2.196327267828751 -2.1335434481379707 2.180294602535745 -2.109517079224987 C 2.17477312006363 -2.1012348555168145 2.1729571406849937 -2.0920757570307957 2.1704679477672366 -2.082679053766264 Z" fill="#20b5a9" transform="matrix(1,0,0,1,0,0)" fill-rule="evenodd"></path></g><g clip-path="url(#SvgjsClipPath10015e867172-245e-4807-8b61-87a3154f39a6)"><path d=" M 2.1704679477672366 -2.082679053766264 C 2.1729571406849937 -2.0920757570307957 2.17477312006363 -2.1012348555168145 2.180294602535745 -2.109517079224987 C 2.196327267828751 -2.1335434481379707 2.2274874373537603 -2.1468323439648134 2.254885531218979 -2.134737129287168 C 2.2768583159748133 -2.125040591421179 2.2916067840125223 -2.105121390822494 2.308018485499823 -2.08851734260973 C 2.3206171960176514 -2.0757658861628574 2.3354448656481974 -2.0654923081204797 2.351030607667334 -2.0567518466251746 C 2.4343902841290292 -2.0099946205677663 2.5657913839034308 -2.034100191073588 2.597488992808411 -2.132666573360125 C 2.6151962060642715 -2.187728652152231 2.5737228577004645 -2.247808717576269 2.522094733683536 -2.2650237495052097 C 2.498956554061661 -2.2727345902936245 2.475739172846948 -2.271320276135808 2.4516845176508077 -2.27110530038382 C 2.4087402825628716 -2.270720606932894 2.367040643933815 -2.2681408979090367 2.3262348518524973 -2.284365909927506 C 2.228975295847783 -2.3230445735154674 2.167056622018584 -2.4213733510234907 2.1800173969608125 -2.5260552277284254 C 2.182602763241301 -2.546930504697795 2.1888823181020056 -2.567443717242763 2.197249400659647 -2.5866840470456967 C 2.208818490470585 -2.6133070967524317 2.2258411756740624 -2.6379727356647487 2.24617335600683 -2.658666980421917 C 2.268943813947673 -2.68183910358358 2.2975242744488256 -2.700423191617287 2.327400246718539 -2.7130728174447962 C 2.3457071291773133 -2.720828916286261 2.3670519584470773 -2.7251454030959166 2.384442365331587 -2.734468562024242 C 2.38414253073013 -2.748702219708506 2.384068986393924 -2.7629358773927697 2.383627720376685 -2.777169535077033 C 2.383169482589553 -2.7919858901943173 2.382445353740751 -2.8075037451338782 2.3901279082460087 -2.8207700119341954 C 2.4159759137942602 -2.865428395781404 2.484321231156578 -2.859431703752263 2.5068314552923825 -2.815491791497225 C 2.5116401234289585 -2.8061064027459555 2.5110743977658316 -2.7960704294820906 2.5109386236066813 -2.785847766749394 C 2.510717990598062 -2.7685591904842473 2.5094281360861332 -2.75113484005995 2.5097223134309594 -2.733868892821328 C 2.524442495185512 -2.726876523625084 2.541527410211933 -2.7239913227431387 2.556683200727093 -2.7175477074401275 C 2.602829443068325 -2.697922684186268 2.6514592210706818 -2.668663352889363 2.681453995729652 -2.6273427504546008 C 2.690177485455062 -2.6153267373697933 2.695557536511396 -2.6016305190654996 2.6943072827958865 -2.58656524465644 C 2.6919878075770676 -2.5586975984908267 2.6637128389340026 -2.530988355510889 2.636122398343322 -2.5292685494949843 C 2.6292431742797033 -2.528838597991008 2.621611535084126 -2.528301158611038 2.61500951659544 -2.5306489201130127 C 2.599248399620734 -2.5362609186912284 2.5873285598986575 -2.5525142169928534 2.575731183804564 -2.563902274591591 C 2.563228646649467 -2.576184178738068 2.549707803300743 -2.587136627576198 2.53476133128094 -2.5963183550887416 C 2.4755128825816968 -2.6327058297410404 2.3969222734601585 -2.634657583278827 2.343613944223745 -2.585795857754588 C 2.3334987693670426 -2.5765236141359438 2.3247696223850003 -2.565203443616782 2.3177772531887557 -2.553413720797225 C 2.308787872401675 -2.5382522730254338 2.302304656302245 -2.521410620034157 2.3013259509050368 -2.5036355196987206 C 2.2985538951557167 -2.4531275324947837 2.337470163522191 -2.4074451851973153 2.38517215143702 -2.3946937287504433 C 2.400780522482682 -2.390524330613201 2.4168867321118936 -2.391616181143035 2.432879796608481 -2.391616181143035 C 2.465092215866907 -2.3916105238864036 2.4986397476903104 -2.394563611847924 2.5306654774799036 -2.390886395037602 C 2.570068269916667 -2.3863605897325897 2.610076388812976 -2.3617402088733224 2.639663840994494 -2.336503187041248 C 2.6670053622933994 -2.313183975207172 2.690533892622832 -2.2830364546191584 2.704309312519964 -2.2497321848308993 C 2.7369969413354145 -2.1707172814620157 2.7220957273686617 -2.069565532894991 2.6658682537105154 -2.0050728072985655 C 2.6463054602795992 -1.9826304702423356 2.6219057124289513 -1.962004112564742 2.595180832102854 -1.948675615941481 C 2.568529496112962 -1.9353867201146384 2.539241878532902 -1.9288469314488956 2.5103446116603987 -1.9226013201279788 C 2.5069049996285893 -1.8977207054636736 2.5103446116603987 -1.8714201193849207 2.509942946439579 -1.8463245289686276 C 2.5097562569707463 -1.834523491635808 2.5108141639607933 -1.8212855111186472 2.504534609100089 -1.810757356527862 C 2.478946837356876 -1.7678640367496081 2.411404850436198 -1.7682204439173776 2.388758852141243 -1.8138405613919018 C 2.3834014301114346 -1.8246289497877248 2.384510252411162 -1.838336482605281 2.384470651614744 -1.8500583183452628 C 2.384397107278537 -1.8730946673477753 2.384730885419782 -1.8961423308635508 2.384510252411162 -1.919178679866063 C 2.3178055394719124 -1.9254865210099241 2.2583364577640506 -1.9643858176065048 2.2111549374592974 -2.0095929553469465 C 2.189827079959427 -2.0300213090424455 2.1664230092758823 -2.050557150613939 2.1704679477672366 -2.082679053766264 Z" fill="#ffffff" transform="matrix(1,0,0,1,0,0)" fill-rule="evenodd"></path></g></g></g><defs><clipPath id="SvgjsClipPath1003"><path d=" M 0.22759081721005914 -3.1227443326420676 h 2.9423403382361317 v 2.8727443326420676 h -2.9423403382361317 Z"></path></clipPath><clipPath id="SvgjsClipPath10015e867172-245e-4807-8b61-87a3154f39a6"><path d=" M 0.22759081721005914 -3.1227443326420676 L 3.169931155446191 -3.1227443326420676 L 3.169931155446191 -0.25 L 0.22759081721005914 -0.25 Z"></path></clipPath></defs></svg>